<?xml version="1.0" encoding="UTF-8" standalone="no"?>
<svg width="17px" height="20px" viewBox="0 0 17 20" version="1.1" xmlns="http://www.w3.org/2000/svg" xmlns:xlink="http://www.w3.org/1999/xlink">
    <!-- Generator: Sketch 41.2 (35397) - http://www.bohemiancoding.com/sketch -->
    <title>Combined Shape</title>
    <desc>Created with Sketch.</desc>
    <defs></defs>
    <g id="Page-1" stroke="none" stroke-width="1" fill="none" fill-rule="evenodd">
        <g id="ikony" transform="translate(-391.000000, -116.000000)" fill="#a41613">
            <path d="M399.409227,136.000091 C400.413318,136.000091 401.227409,135.186 401.227409,134.181909 L397.591045,134.181909 C397.591045,135.186 398.405136,136.000091 399.409227,136.000091 Z M406.080909,129.552727 C405.168182,129.031364 404.543182,128.121818 404.383636,127.083182 L403.336818,121.909091 C403.085909,120.279545 401.865909,119.012273 400.318182,118.648636 L400.318182,116 L398.5,116 L398.5,118.648636 C396.952727,119.012273 395.732727,120.279545 395.481818,121.909091 L394.435,127.083182 C394.275,128.121818 393.65,129.031364 392.737727,129.552727 C391.663182,130.166818 391,131.309091 391,132.546818 C391,132.947727 391.325455,133.272727 391.726364,133.272727 L407.092273,133.272727 C407.493182,133.272727 407.818182,132.947727 407.818182,132.546818 C407.818182,131.309091 407.155455,130.166818 406.080909,129.552727 Z" id="Combined-Shape"></path>
        </g>
    </g>
</svg>
