<?xml version="1.0" encoding="UTF-8" standalone="no"?>
<svg width="19px" height="21px" viewBox="0 0 19 21" version="1.1" xmlns="http://www.w3.org/2000/svg" xmlns:xlink="http://www.w3.org/1999/xlink">
    <!-- Generator: Sketch 41.2 (35397) - http://www.bohemiancoding.com/sketch -->
    <title>Combined Shape Copy</title>
    <desc>Created with Sketch.</desc>
    <defs></defs>
    <g id="Page-1" stroke="none" stroke-width="1" fill="none" fill-rule="evenodd">
        <g id="ikony" transform="translate(-389.000000, -501.000000)" fill="#000000">
            <path d="M401.515333,504.465281 C401.127323,504.208154 400.692502,504.017737 400.228185,503.908646 L400.228185,501.26001 L398.410004,501.26001 L398.410004,503.908646 C396.862731,504.272282 395.642731,505.539555 395.391822,507.169101 L394.524471,511.456143 L389,516.980614 L390.414214,518.394827 L406.394827,502.414214 L404.980614,501 L401.515333,504.465281 Z M403.443417,508.14081 L404.29364,512.343192 C404.453185,513.381828 405.078185,514.291373 405.990913,514.812737 C407.065458,515.426828 407.728185,516.569101 407.728185,517.806828 C407.728185,518.207737 407.403185,518.532737 407.002276,518.532737 L393.05149,518.532737 L403.443417,508.14081 Z M399.319231,521.260101 C400.323322,521.260101 401.137413,520.44601 401.137413,519.441919 L397.501049,519.441919 C397.501049,520.44601 398.31514,521.260101 399.319231,521.260101 Z" id="Combined-Shape-Copy"></path>
        </g>
    </g>
</svg>