<?xml version="1.0" encoding="UTF-8" standalone="no"?>
<svg width="16px" height="17px" viewBox="0 0 16 17" version="1.1" xmlns="http://www.w3.org/2000/svg" xmlns:xlink="http://www.w3.org/1999/xlink">
    <!-- Generator: Sketch 41.2 (35397) - http://www.bohemiancoding.com/sketch -->
    <title>Fill 13</title>
    <desc>Created with Sketch.</desc>
    <defs></defs>
    <g id="Page-1" stroke="none" stroke-width="1" fill="none" fill-rule="evenodd">
        <g id="ikony" transform="translate(-42.000000, -504.000000)" fill="#000000">
            <g id="Group-17" transform="translate(13.000000, 503.000000)">
                <g id="Group-14" transform="translate(29.000000, 0.000000)">
                    <path d="M2.99740141,11.2070102 C3.0414973,10.8741574 3.1979666,10.6408759 3.46396441,10.5071658 L5.86505689,9.40619088 L5.86505689,7.03923715 C5.93191195,6.61677004 6.15381387,6.29529676 6.53076263,6.07339485 L9.13099786,4.73913848 L7.56488244,4.13886536 C7.49802737,4.09476947 7.41979273,4.0279144 7.33160094,3.93972262 L5.96462826,1.97247682 C5.8977732,1.83876669 5.86505689,1.70505656 5.86505689,1.57276889 C5.88639361,1.39496287 5.96462826,1.24987315 6.09833839,1.1389222 C6.23062607,1.02797124 6.38709536,0.983875349 6.56490138,1.00521207 C6.76404413,1.04930796 6.92051342,1.1389222 7.03146438,1.27263232 L8.33158199,3.20573937 L10.7981071,4.07201029 C10.6430602,3.80601249 10.5648256,3.54997182 10.5648256,3.30531074 C10.5648256,2.9496987 10.6985357,2.639605 10.965956,2.37218475 C11.2319538,2.10618694 11.5434699,1.97247682 11.899082,1.97247682 C12.254694,1.97247682 12.5662102,2.10618694 12.832208,2.37218475 C13.0996282,2.639605 13.2319159,2.9496987 13.2319159,3.30531074 C13.2319159,3.66092278 13.0996282,3.97243892 12.832208,4.23985918 C12.5662102,4.50585698 12.254694,4.63956711 11.899082,4.63956711 L11.8322269,4.63956711 L15.4665819,7.97378559 C15.6216288,8.12883243 15.6998634,8.28387928 15.6998634,8.44034858 C15.6998634,8.84005651 15.4879187,9.06195842 15.0654516,9.10605432 C14.9331639,9.10605432 14.7766946,9.0406217 14.5988886,8.90691158 L11.965937,6.47310278 L9.13099786,7.87279177 L11.0313886,9.539901 C11.2091946,9.74046619 11.2874293,9.95098852 11.2646701,10.1728904 L11.2646701,10.2397455 L10.8322459,13.7745292 C10.78815,13.9736719 10.6871561,14.1457881 10.5321093,14.2908778 C10.37564,14.4359676 10.1878768,14.4971328 9.96455248,14.4743737 C9.74265056,14.4743737 9.55346496,14.3847594 9.39841811,14.2069534 C9.24337126,14.0291474 9.1765162,13.8300046 9.19785292,13.6066803 L9.19785292,13.573964 L9.56484454,10.473027 L7.53216613,8.63949132 L7.53216613,10.1074578 C7.50940696,10.3734556 7.37569683,10.5626412 7.13103575,10.6735922 L4.19794765,12.0064261 C4.02014163,12.0519444 3.88643151,12.0732812 3.79681727,12.0732812 C3.26339922,12.0291853 2.99740141,11.7404283 2.99740141,11.2070102 M16,17.4416005 C15.9544817,17.5525515 15.8776695,17.6080269 15.7667185,17.6080269 C10.3429237,15.8968218 5.94186909,14.3292839 2.56355472,12.9068358 L0.663163987,13.7076741 C0.530876308,13.8186251 0.374407011,13.8300046 0.196600992,13.7403904 C-0.0253009205,13.5853436 -0.0580172281,13.396158 0.0970296209,13.174256 L1.19658205,12.3407014 C1.06429437,12.2738464 0.869418969,12.1842321 0.613378301,12.0732812 C0.358760082,11.9623302 0.207980577,11.8954752 0.163884684,11.8741384 C0.0074153871,11.8072834 -0.0366805057,11.6849528 0.0301745576,11.5071468 C0.0742704504,11.3293408 0.196600992,11.2852449 0.397166182,11.3734367 C5.15383281,13.5298681 10.2988278,15.4857343 15.8321511,17.2410353 C15.9445245,17.2410353 16,17.3078904 16,17.4416005" id="Fill-13"></path>
                </g>
            </g>
        </g>
    </g>
</svg>