<?xml version="1.0" encoding="UTF-8" standalone="no"?>
<svg width="18px" height="13px" viewBox="0 0 18 13" version="1.1" xmlns="http://www.w3.org/2000/svg" xmlns:xlink="http://www.w3.org/1999/xlink">
    <!-- Generator: Sketch 41.2 (35397) - http://www.bohemiancoding.com/sketch -->
    <title>Fill 9</title>
    <desc>Created with Sketch.</desc>
    <defs></defs>
    <g id="Page-1" stroke="none" stroke-width="1" fill="none" fill-rule="evenodd">
        <g id="ikony" transform="translate(-41.000000, -119.000000)" fill="#000000">
            <g id="Group-12" transform="translate(41.000000, 111.000000)">
                <g id="Group-13">
                    <path d="M13.2406154,16.9132308 C13.6449231,17.3175385 13.8461538,17.8067692 13.8461538,18.3846154 C13.8461538,18.9606154 13.6449231,19.4516923 13.2406154,19.856 C12.8363077,20.2584615 12.3470769,20.4615385 11.7692308,20.4615385 C11.1932308,20.4615385 10.7021538,20.2584615 10.2978462,19.856 C9.89538462,19.4516923 9.69230769,18.9606154 9.69230769,18.3846154 C9.69230769,18.1538462 9.73661538,17.9230769 9.82153846,17.6923077 L0.908307692,17.6923077 C0.302769231,17.6923077 0,17.4615385 0,17 C0,16.5384615 0.302769231,16.3076923 0.908307692,16.3076923 L11.5532308,16.3076923 L11.64,16.3076923 L11.7692308,16.3076923 C12.3470769,16.3076923 12.8363077,16.5089231 13.2406154,16.9132308 M17.3944615,11.3747692 C17.7987692,11.7790769 18,12.2683077 18,12.8461538 C18,13.4221538 17.7987692,13.9132308 17.3944615,14.3175385 C16.9901538,14.7218462 16.5009231,14.9230769 15.9230769,14.9230769 L0.692307692,14.9230769 C0.230769231,14.9230769 0,14.6923077 0,14.2307692 C0,13.7692308 0.230769231,13.5384615 0.692307692,13.5384615 L13.9753846,13.5384615 C13.8904615,13.3076923 13.8461538,13.0769231 13.8461538,12.8461538 C13.8461538,12.2683077 14.0547692,11.7790769 14.4738462,11.3747692 C14.8929231,10.9704615 15.3747692,10.7692308 15.9230769,10.7692308 C16.5009231,10.7692308 16.9901538,10.9704615 17.3944615,11.3747692 M0,11.4615385 C0,11 0.230769231,10.7692308 0.692307692,10.7692308 L7.05230769,10.7692308 C6.96738462,10.5384615 6.92307692,10.3076923 6.92307692,10.0769231 C6.92307692,9.49907692 7.13169231,9.00984615 7.55076923,8.60553846 C7.96984615,8.20123077 8.45169231,8 9,8 C9.57784615,8 10.0670769,8.20123077 10.4713846,8.60553846 C10.8756923,9.00984615 11.0769231,9.49907692 11.0769231,10.0769231 C11.0769231,10.6529231 10.8756923,11.144 10.4713846,11.5483077 C10.0670769,11.9507692 9.57784615,12.1538462 9,12.1538462 L0.692307692,12.1538462 C0.230769231,12.1538462 0,11.9230769 0,11.4615385" id="Fill-9"></path>
                </g>
            </g>
        </g>
    </g>
</svg>