<?xml version="1.0" encoding="UTF-8" standalone="no"?>
<svg width="17px" height="17px" viewBox="0 0 17 17" version="1.1" xmlns="http://www.w3.org/2000/svg" xmlns:xlink="http://www.w3.org/1999/xlink">
    <!-- Generator: Sketch 41.2 (35397) - http://www.bohemiancoding.com/sketch -->
    <title>Fill 6</title>
    <desc>Created with Sketch.</desc>
    <defs></defs>
    <g id="Page-1" stroke="none" stroke-width="1" fill="none" fill-rule="evenodd">
        <g id="ikony" transform="translate(-42.000000, -255.000000)" fill="#000000">
            <g id="Group-12-Copy-2" transform="translate(42.000000, 253.000000)">
                <g id="Group-13">
                    <path d="M14.6595,10.4721689 C14.2845,11.2926689 14.004,11.6796689 13.8165,11.6316689 L11.8125,11.1396689 C12.1875,10.8591689 12.5385,10.3551689 12.867,9.62916886 C13.218,8.90166886 13.371,8.30466886 13.323,7.83516886 L15.0105,9.06666886 C15.1755,9.13566886 15.0585,9.60516886 14.6595,10.4721689 M10.845,6.92166886 C10.7625,7.36716886 10.593,7.87116886 10.335,8.43366886 C10.077,8.99616886 9.8025,9.45216886 9.5085,9.80466886 C9.216,10.1556689 9,10.2966689 8.859,10.2261689 L6.2925,9.59316886 C6.7605,9.12516886 7.254,8.33916886 7.7685,7.23816886 C8.2845,6.15966886 8.5665,5.28066886 8.613,4.60116886 L10.7565,6.14766886 C10.8975,6.21816886 10.9275,6.47616886 10.845,6.92166886 M6.0285,3.81066886 C5.8995,4.47816886 5.6355,5.23416886 5.238,6.07716886 C4.839,6.92166886 4.4235,7.60116886 3.99,8.11716886 C3.5565,8.63166886 3.234,8.84316886 3.0225,8.75016886 C2.9355,8.71116886 2.886,8.61216886 2.856,8.47566886 C2.814,8.28216886 2.8245,8.00016886 2.8995,7.60716886 C3.0285,6.93966886 3.2925,6.18366886 3.6915,5.33916886 C4.089,4.49616886 4.5045,3.81066886 4.9395,3.28266886 C5.1825,2.98716886 5.3865,2.79966886 5.559,2.69916886 C5.6955,2.62116886 5.8125,2.59116886 5.9055,2.63166886 C6.117,2.75016886 6.1575,3.14166886 6.0285,3.81066886 M2.3625,7.54716886 L1.23,4.84716886 L4.215,3.33216886 C3.858,3.84066886 3.5145,4.41366886 3.198,5.12766886 C2.7735,6.02016886 2.508,6.81816886 2.3625,7.54716886 M16.1355,9.27666886 L5.871,2.03466886 C5.79,1.99416886 5.697,1.99266886 5.5965,2.01216886 C5.5605,2.01966886 5.5185,2.04066886 5.4795,2.05566886 L5.2755,2.15916886 L1.125,4.28466886 L1.125,3.23016886 C1.125,2.85516886 0.9375,2.66766886 0.5625,2.66766886 C0.1875,2.66766886 0,2.85516886 0,3.23016886 L0,17.8551689 C0,18.2301689 0.1875,18.4176689 0.5625,18.4176689 C0.9375,18.4176689 1.125,18.2301689 1.125,17.8551689 L1.125,6.04266886 L2.262,8.69616886 C2.298,8.93766886 2.3865,9.09966886 2.5305,9.17166886 L14.694,12.3351689 C14.835,12.4056689 15.0285,12.3171689 15.2745,12.0711689 C15.5205,11.8251689 15.738,11.4921689 15.9255,11.0691689 C16.3935,10.0386689 16.464,9.44166886 16.1355,9.27666886" id="Fill-6"></path>
                </g>
            </g>
        </g>
    </g>
</svg>